<!DOCTYPE svg PUBLIC "-//W3C//DTD SVG 20010904//EN" "http://www.w3.org/TR/2001/REC-SVG-20010904/DTD/svg10.dtd">
<svg version="1.0" xmlns="http://www.w3.org/2000/svg" width="256px" height="256px" viewBox="0 0 2560 2560" preserveAspectRatio="xMidYMid meet">
<g id="layer1" fill="#0e1318" stroke="none">
<path d="M0 2000 l0 -560 80 0 80 0 0 -80 0 -80 80 0 80 0 0 -80 0 -80 -80 0 -80 0 0 -80 0 -80 -80 0 -80 0 0 -320 0 -320 160 0 160 0 0 -80 0 -80 -80 0 -80 0 0 -80 0 -80 800 0 800 0 0 80 0 80 -80 0 -80 0 0 80 0 80 160 0 160 0 0 80 0 80 160 0 160 0 0 80 0 80 80 0 80 0 0 -320 0 -320 80 0 80 0 0 1280 0 1280 -1280 0 -1280 0 0 -560z m640 320 l0 -80 80 0 80 0 0 80 0 80 240 0 240 0 0 -80 0 -80 80 0 80 0 0 -160 0 -160 -80 0 -80 0 0 160 0 160 -240 0 -240 0 0 -160 0 -160 -80 0 -80 0 0 160 0 160 -160 0 -160 0 0 -80 0 -80 -80 0 -80 0 0 80 0 80 80 0 80 0 0 80 0 80 160 0 160 0 0 -80z m160 -640 l0 -80 80 0 80 0 0 -80 0 -80 -240 0 -240 0 0 80 0 80 80 0 80 0 0 80 0 80 80 0 80 0 0 -80z m800 -480 l0 -240 -160 0 -160 0 0 80 0 80 -80 0 -80 0 0 80 0 80 80 0 80 0 0 80 0 80 160 0 160 0 0 -240z m320 160 l0 -80 80 0 80 0 0 -160 0 -160 -160 0 -160 0 0 240 0 240 80 0 80 0 0 -80z"/>
 </g>
 <g id="layer2" fill="#3e5368" stroke="none">
 <path d="M2080 2320 l0 -80 -240 0 -240 0 0 -80 0 -80 240 0 240 0 0 80 0 80 160 0 160 0 0 80 0 80 -160 0 -160 0 0 -80z"/>
 <path d="M640 1840 l0 -80 -80 0 -80 0 0 -80 0 -80 80 0 80 0 0 80 0 80 80 0 80 0 0 -80 0 -80 80 0 80 0 0 80 0 80 -80 0 -80 0 0 80 0 80 -80 0 -80 0 0 -80z"/>
 <path d="M1600 1840 l0 -80 400 0 400 0 0 80 0 80 -400 0 -400 0 0 -80z"/>
 <path d="M160 1040 l0 -80 -80 0 -80 0 0 -80 0 -80 80 0 80 0 0 80 0 80 80 0 80 0 0 80 0 80 -80 0 -80 0 0 -80z"/>
 <path d="M2080 1040 l0 -80 -160 0 -160 0 0 -80 0 -80 160 0 160 0 0 80 0 80 80 0 80 0 0 80 0 80 -80 0 -80 0 0 -80z"/>
 <path d="M1440 880 l0 -80 80 0 80 0 0 80 0 80 -80 0 -80 0 0 -80z"/>
 <path d="M480 240 l0 -80 -80 0 -80 0 0 -80 0 -80 640 0 640 0 0 80 0 80 -80 0 -80 0 0 80 0 80 -480 0 -480 0 0 -80z"/>
 </g>


</svg>